# xmcd
#
# Track frame offsets:
#	150
#	10090
#	18975
#	46487
#	56175
#	75450
#	82620
#	93070
#	98820
#	119162
#	129350
#	139035
#	149325
#	162450
#
# Disc length: 2478 seconds
# Revision: 0
# Processed by: cddbd v1.5.2PL0 Copyright (c) Steve Scherf et al.
# Submitted via: dBpowerAMP V12.0
#
DISCID=ad09ac0e
DTITLE=Sarah Barchas - Living With The Land
DYEAR=2005
DGENRE=Country
TTITLE0=Living with the Land - Prologue
TTITLE1=Move 'em Along
TTITLE2=Caballito
TTITLE3=Rain Prayer
TTITLE4=Siempre Viva
TTITLE5=Cows Make A Living
TTITLE6=Horses of My Dreams
TTITLE7=Rain Is Falling
TTITLE8=Granny Cow
TTITLE9=Windmill Song
TTITLE10=I'll Go Riding
TTITLE11=If I Don't Take Care of the Land
TTITLE12=This Old House
TTITLE13=Living with the Land - Finale
EXTD=
EXTT0=
EXTT1=
EXTT2=
EXTT3=
EXTT4=
EXTT5=
EXTT6=
EXTT7=
EXTT8=
EXTT9=
EXTT10=
EXTT11=
EXTT12=
EXTT13=
PLAYORDER=
